HIERARCHY
ROOT Hips
{
	OFFSET 0.000000 0.000000 0.000000
	CHANNELS 6 Xposition Yposition Zposition Zrotation Yrotation Xrotation 
	JOINT LowerBack
	{
		OFFSET 0.000000 0.000000 0.000000
		CHANNELS 3 Zrotation Yrotation Xrotation
		JOINT Spine
		{
			OFFSET 0.028270 2.035590 -0.193380
			CHANNELS 3 Zrotation Yrotation Xrotation
			JOINT Spine1
			{
				OFFSET 0.056720 2.048850 -0.042750
				CHANNELS 3 Zrotation Yrotation Xrotation
				JOINT Neck
				{
					OFFSET 0.000000 0.000000 0.000000
					CHANNELS 3 Zrotation Yrotation Xrotation
					JOINT Neck1
					{
						OFFSET -0.054170 1.746240 0.172020
						CHANNELS 3 Zrotation Yrotation Xrotation
						JOINT Head
						{
							OFFSET 0.104070 1.761360 -0.123970
							CHANNELS 3 Zrotation Yrotation Xrotation
							End Site
							{
								OFFSET 0.000000 0.000000 0.000000
							}
						}
					}
				}
				JOINT LeftShoulder
				{
					OFFSET 0.000000 0.000000 0.000000
					CHANNELS 3 Zrotation Yrotation Xrotation
					JOINT LeftArm
					{
						OFFSET 3.362410 1.200890 -0.311210
						CHANNELS 3 Zrotation Yrotation Xrotation
						JOINT LeftForeArm
						{
							OFFSET 4.983000 -0.000000 -0.000000
							CHANNELS 3 Zrotation Yrotation Xrotation
							JOINT LeftHand
							{
								OFFSET 3.483560 -0.000000 -0.000000
								CHANNELS 3 Zrotation Yrotation Xrotation
								JOINT LeftFingerBase
								{
									OFFSET 0.000000 0.000000 0.000000
									CHANNELS 3 Zrotation Yrotation Xrotation
									JOINT LeftHandIndex1
									{
										OFFSET 0.715260 -0.000000 -0.000000
										CHANNELS 3 Zrotation Yrotation Xrotation
										End Site
										{
											OFFSET 0.000000 0.000000 0.000000
										}
									}
								}
								JOINT LThumb
								{
									OFFSET 0.000000 0.000000 0.000000
									CHANNELS 3 Zrotation Yrotation Xrotation
									End Site
									{
										OFFSET 0.000000 0.000000 0.000000
									}
								}
							}
						}
					}
				}
				JOINT RightShoulder
				{
					OFFSET 0.000000 0.000000 0.000000
					CHANNELS 3 Zrotation Yrotation Xrotation
					JOINT RightArm
					{
						OFFSET -3.136600 1.374050 -0.404650
						CHANNELS 3 Zrotation Yrotation Xrotation
						JOINT RightForeArm
						{
							OFFSET -5.241900 -0.000000 -0.000000
							CHANNELS 3 Zrotation Yrotation Xrotation
							JOINT RightHand
							{
								OFFSET -3.444170 -0.000000 -0.000000
								CHANNELS 3 Zrotation Yrotation Xrotation
								JOINT RightFingerBase
								{
									OFFSET 0.000000 0.000000 0.000000
									CHANNELS 3 Zrotation Yrotation Xrotation
									JOINT RightHandIndex1
									{
										OFFSET -0.622530 -0.000000 -0.000000
										CHANNELS 3 Zrotation Yrotation Xrotation
										End Site
										{
											OFFSET 0.000000 0.000000 0.000000
										}
									}
								}
								JOINT RThumb
								{
									OFFSET 0.000000 0.000000 0.000000
									CHANNELS 3 Zrotation Yrotation Xrotation
									End Site
									{
										OFFSET 0.000000 0.000000 0.000000
									}
								}
							}
						}
					}
				}
			}
		}
	}
}
}
MOTION
Frames: 7
Frame Time: 0.008333
-3.210749 16.860982 0.053082 119.269254 85.365124 138.006757 3.323236 -1.799686 -6.169066 -0.106997 -2.271074 -3.645773 -7.033921 -2.110438 1.455712 5.722836 -14.617822 -9.553998 -4.053850 -0.299676 -0.501351 0.000000 0.000000 0.000000 4.790733 12.956495 -0.492085 -43.872016 -15.574982 9.265607 -178.435956 -65.195493 179.974085 3.116354 1.491562 0.031396 -0.173687 0.485377 -0.000000 0.000000 0.000000 0.000000 0.000000 0.000000 0.000000 12.279549 -9.113958 -0.235151 71.353883 -7.437012 1.824677 0.706231 75.740681 0.008079 0.831431 2.614176 0.021271 0.037265 -0.237416 -0.000000 0.000000 0.000000 0.000000 0.000000 0.000000 0.000000 
-3.044330 16.808028 0.044362 116.941905 85.709967 135.670317 3.698307 -1.681770 -6.185087 -0.040382 -2.188996 -3.656948 -7.003459 -2.030411 1.443831 5.524769 -14.469197 -9.682887 -4.158024 -0.306968 -0.543969 0.000000 0.000000 0.000000 4.738707 13.195275 -0.495940 -43.943884 -14.963995 8.106810 -178.415347 -64.922337 179.972960 3.263895 1.359861 0.028666 -0.179325 0.490282 -0.000000 0.000000 0.000000 0.000000 0.000000 0.000000 0.000000 12.575451 -8.824924 -0.183546 70.425356 -6.864503 2.199048 0.756956 75.002228 0.006849 0.459337 2.516192 0.011394 0.045433 -0.233904 -0.000000 0.000000 0.000000 0.000000 0.000000 0.000000 0.000000 
-2.883046 16.761757 0.032792 116.747230 86.057320 135.399595 4.156605 -1.622890 -6.110740 0.052166 -2.169959 -3.652346 -6.960718 -2.014703 1.421933 5.356594 -14.277415 -9.814883 -4.264595 -0.314124 -0.589252 0.000000 0.000000 0.000000 4.653380 13.417085 -0.482090 -44.220542 -14.233627 6.985043 -178.397340 -64.727525 179.970820 3.530055 1.231021 0.026588 -0.189248 0.495144 -0.000000 0.000000 0.000000 0.000000 0.000000 0.000000 0.000000 12.897290 -8.525707 -0.125061 69.456754 -6.090695 2.654413 0.813556 74.129736 0.005430 0.034259 2.416565 0.001009 0.054016 -0.230139 -0.000000 0.000000 0.000000 0.000000 0.000000 0.000000 0.000000 
-2.726539 16.722952 0.019280 120.428860 86.366641 138.960147 4.701238 -1.635873 -5.980088 0.172760 -2.228041 -3.637524 -6.907875 -2.077301 1.392809 5.219795 -14.045130 -9.941500 -4.372179 -0.321188 -0.634293 0.000000 0.000000 0.000000 4.528883 13.605497 -0.450007 -44.685964 -13.421643 5.931672 -178.383964 -64.627936 179.967580 3.924939 1.107269 0.024769 -0.203651 0.499894 -0.000000 0.000000 0.000000 0.000000 0.000000 0.000000 0.000000 13.241082 -8.231046 -0.062486 68.485665 -5.150204 3.151302 0.874746 73.130229 0.003848 -0.433158 2.310313 -0.009486 0.062757 -0.226003 -0.000000 0.000000 0.000000 0.000000 0.000000 0.000000 0.000000 
-2.575089 16.692386 0.003160 131.762505 86.641039 150.116880 5.489506 -1.715240 -5.794293 0.351769 -2.371491 -3.612095 -6.848986 -2.224690 1.358298 5.104792 -13.791419 -10.058367 -4.479088 -0.328116 -0.677684 0.000000 0.000000 0.000000 4.345970 13.751065 -0.398502 -45.348921 -12.575276 4.967854 -178.376452 -64.647365 179.963360 4.434966 0.990411 0.022814 -0.221911 0.504639 0.000000 0.000000 0.000000 0.000000 0.000000 0.000000 0.000000 13.588358 -7.969584 0.001978 67.513931 -4.050858 3.700585 0.938591 72.014809 0.002006 -0.972539 2.184727 -0.020392 0.072031 -0.221305 -0.000000 0.000000 0.000000 0.000000 0.000000 0.000000 0.000000 
-2.427687 16.669749 -0.013224 150.607051 86.975195 168.783003 6.594304 -1.744362 -5.585006 0.579975 -2.489616 -3.585540 -6.804208 -2.342330 1.316220 5.020438 -13.517205 -10.164459 -4.581838 -0.334664 -0.718219 0.000000 0.000000 0.000000 4.123174 13.895904 -0.347216 -46.180892 -11.710804 4.123047 -178.385730 -64.805434 179.958278 5.051652 0.883799 0.020705 -0.242309 0.508530 -0.000000 0.000000 0.000000 0.000000 0.000000 0.000000 0.000000 13.935926 -7.683364 0.075774 66.604194 -2.849491 4.245017 1.006656 70.802627 0.000076 -1.544476 2.036633 -0.030502 0.081952 -0.216416 -0.000000 0.000000 0.000000 0.000000 0.000000 0.000000 0.000000 
-2.284076 16.654879 -0.029533 169.441316 87.488965 -172.533826 7.578162 -1.624760 -5.322651 0.755318 -2.440741 -3.555807 -6.765428 -2.291209 1.268012 4.973343 -13.230508 -10.265251 -4.673019 -0.339812 -0.757388 0.000000 0.000000 0.000000 3.865834 14.094951 -0.321915 -47.141106 -10.844934 3.404761 -178.423046 -65.112681 179.952659 5.745624 0.791119 0.018477 -0.262121 0.509954 -0.000000 0.000000 0.000000 0.000000 0.000000 0.000000 0.000000 14.281298 -7.317677 0.170424 65.791287 -1.565784 4.779821 1.080925 69.507486 -0.001958 -2.149664 1.857531 -0.039006 0.092825 -0.212038 -0.000000 0.000000 0.000000 0.000000 0.000000 0.000000 0.000000 
